<svg version="1.1" xmlns="http://www.w3.org/2000/svg" xmlns:xlink="http://www.w3.org/1999/xlink" width="708" height="708" viewBox="0 0 708 708"><defs/><g><rect fill="rgb(0,0,0)" stroke="none" x="0" y="0" width="708" height="708" transform="matrix(1 0 0 1 0 0)" fill-opacity="1"/><g><path fill="none" stroke="none"/><path fill="none" stroke="rgb(255,255,255)" paint-order="fill stroke markers" d=" M 310.0063519291329 183.9 L 397.9936480708671 183.9 L 397.9936480708671 183.9 A 144.14235192913293 144.14235192913293 0 0 1 542.136 328.0423519291329 L 542.136 444.6659095882495 L 542.136 444.6659095882495 A 79.4340904117505 79.4340904117505 0 0 1 462.7019095882495 524.1 L 245.29809041175048 524.1 L 245.29809041175048 524.1 A 79.4340904117505 79.4340904117505 0 0 1 165.86399999999998 444.6659095882495 L 165.86399999999998 328.0423519291329 L 165.86399999999998 328.04235192913296 A 144.14235192913293 144.14235192913293 0 0 1 310.0063519291329 183.9 Z" stroke-opacity="1" stroke-linecap="round" stroke-miterlimit="10" stroke-width="9.5" stroke-dasharray=""/><g><g><path fill="rgb(255,255,255)" stroke="none" paint-order="stroke fill markers" d=" M 257.8536291732788 300.7606169166565 L 258.0757392282486 302.38479669362306 L 258.3011812659502 304.0333415943161 L 258.52443004095556 305.6658482615426 L 258.74672340653836 307.291368497367 L 258.969644748196 308.92148080823847 L 259.19106198978426 310.5405943873525 L 259.4152634689361 312.18006770365037 L 259.63900266373156 313.8161605655923 L 259.86312629699705 315.4550646338463 L 260.08558205638826 317.08177237439435 L 260.308522810936 318.7120266420245 L 260.5306944986433 320.3366571083842 L 260.75517326898876 321.97815811653527 L 260.9769242721945 323.5997123274775 L 261.20381235797703 325.25883145476223 L 261.4265024999231 326.88725311774294 L 261.6487515535355 328.51244932228326 L 261.8700409555435 330.13062807446715 L 262.0946007127762 331.7727212992311 L 262.3173941215128 333.40189810061736 L 262.5428164526224 335.0502988968566 L 262.765747215271 336.6804800987244 L 262.9882656621616 338.30764624161213 L 263.2125557436794 339.94776746271083 L 263.4359008026123 341.5809782061577 L 263.65803414004483 343.20532823613297 L 263.8812167533189 344.8373510956997 L 264.10271498622 346.45705692378897 L 264.3298789139986 348.11819314567 L 264.5524028166532 349.7453991838321 L 264.7751230055094 351.3740405648425 L 264.9978338474035 353.0026135961935 L 265.22032970917223 354.6296145853773 L 265.4424049576521 356.2535398398861 L 265.6688780020326 357.90962397691885 L 265.88947382824125 359.5227309560692 L 266.11400360012055 361.1646049129367 L 266.3372233006507 362.79689897306355 L 266.5589129551649 364.4180045716986 L 266.7837185754776 366.0618956702352 L 267.0064605642557 367.69069646317513 L 267.23166891463103 369.3375325252945 L 267.4542270126343 370.96498861694334 L 267.6785244369507 372.60516353225705 L 267.899529258728 374.2212612915039 L 268.12370940531605 375.86057861342874 L 268.3482136888504 377.5022661867738 L 268.57031622223553 379.12639096215275 L 268.79165800617636 380.7449527572198 L 269.0156841827184 382.3831441731835 L 269.24133339853586 384.0332040638486 L 269.4636006141901 385.6585330783203 L 269.68531789840756 387.27984071916063 L 269.9086202325672 388.9127390377028 L 270.1314485692978 390.54217125004527 L 270.35775684893133 392.1970505448654 L 270.58069693279265 393.82729990810157 L 270.801757475853 395.44380512923004 L 271.024165877223 397.0701665642485 L 271.2481142807007 398.7077892646789 L 271.4708521270752 400.33655976629257 L 271.69765979003904 401.9852367477417 L 271.9469419784546 403.6180814819336 L 272.2133988876343 405.21432135009763 L 272.51608019256594 406.8329741516113 L 272.8587193222046 408.4037260131836 L 273.2814908065796 409.93739160156247 L 273.8487973251343 411.3774602661133 L 274.6047017440796 412.5980517578125 L 275.55932906341553 413.46040216064455 L 276.59418843841553 414.0137966918945 L 277.6881251449585 414.3880966339111 L 278.048998008728 415.5874234008789 L 277.26964677429197 416.1000015258789 L 276.1735868272036 416.1000015258789 L 275.06521383082867 416.1000015258789 L 273.94578806197643 416.1000015258789 L 272.83113016934504 416.1000015258789 L 271.7248847190142 416.1000015258789 L 270.6117942748815 416.1000015258789 L 269.49525950221715 416.1000015258789 L 268.38986411190035 416.1000015258789 L 267.2781896971017 416.1000015258789 L 266.1718524531126 416.1000015258789 L 265.0533699903488 416.1000015258789 L 263.93724758921564 416.1000015258789 L 262.84009393452106 416.1000015258789 L 261.7310425833464 416.1000015258789 L 260.6010493401289 416.1000015258789 L 259.4965418729782 416.1000015258789 L 258.3845919195414 416.1000015258789 L 257.528998008728 415.7242691040039 L 257.8182328720093 414.4330151977539 L 258.9081494064331 414.2116000366211 L 259.99180867767336 413.89429400634765 L 261.0645634689331 413.4091937866211 L 262.02949459075927 412.5886831665039 L 262.64549800872805 411.24000152587894 L 262.89847469329834 409.60564459228516 L 262.8957358016968 407.9580974731445 L 262.7514545516968 406.2988630981445 L 262.58323519134524 404.63474914550784 L 262.40821062469485 402.9993305206299 L 262.215567111969 401.36729070663455 L 261.9891397245526 399.71760545545817 L 261.766353703022 398.094450155735 L 261.5446434028745 396.47913225466016 L 261.3191618256569 394.83633790636065 L 261.09385906219484 393.19484634399413 L 260.8704315619469 391.56701741361616 L 260.6447624516487 389.92285675287246 L 260.42371569889787 388.31237326854466 L 260.19859796762466 386.6722297978401 L 259.81165816497804 385.3200015258789 L 258.70921927441657 385.3200015258789 L 257.5951481580734 385.3200015258789 L 256.4923930310458 385.3200015258789 L 255.372777357772 385.3200015258789 L 254.2664911684245 385.3200015258789 L 253.15845055125655 385.3200015258789 L 252.04511095297337 385.3200015258789 L 250.93082331733592 385.3200015258789 L 249.81816424106063 385.3200015258789 L 248.70978718435765 385.3200015258789 L 247.59804785696605 385.3200015258789 L 246.49364173431695 385.3200015258789 L 245.37326953125 385.3200015258789 L 244.26539925433696 385.3200015258789 L 243.15278649902345 385.3200015258789 L 242.07849190521242 385.367403137207 L 241.85082451486588 387.026122695446 L 241.62876259864123 388.64400237079707 L 241.40452322530746 390.2777463765144 L 241.18210760611296 391.89820303064585 L 240.9576425061822 393.5335916158557 L 240.73294299834967 395.17068803006407 L 240.50979637527465 396.7964705696106 L 240.2841790951118 398.44025361079724 L 240.05971373748778 400.07564407348633 L 239.83660499954223 401.70115059280397 L 239.61339058685303 403.34103814697266 L 239.41896883392334 404.9790807189941 L 239.26395943450927 406.6409081420898 L 239.17568209075927 408.2946845092773 L 239.2194549179077 409.96089959716795 L 239.5378387069702 411.5564572143555 L 240.25046468353273 412.80586639404294 L 241.25067427825928 413.5344214477539 L 242.31592183685302 413.9781812133789 L 243.41432860565186 414.2797064819336 L 244.46099800872804 414.5496109008789 L 244.37616899871827 416.1000015258789 L 243.2821316256523 416.1000015258789 L 242.16226728766412 416.1000015258789 L 241.05728809585423 416.1000015258789 L 239.94510546333342 416.1000015258789 L 238.82738607931137 416.1000015258789 L 237.7217061797753 416.1000015258789 L 236.5992690005824 416.1000015258789 L 235.48993212872745 416.1000015258789 L 234.3926838569641 416.1000015258789 L 233.28188729900123 416.1000015258789 L 232.15380224579573 416.1000015258789 L 231.17699800872802 415.90135772705077 L 231.33582735443116 414.44116760253905 L 232.41897164154054 414.1000173950195 L 233.47367891693116 413.5844976806641 L 234.45900423431397 412.78611572265623 L 235.245488822937 411.63796025085446 L 235.84450518035888 410.2354796600342 L 236.28950337982178 408.7201026000977 L 236.64767525482176 407.13933697509765 L 236.95513314056396 405.5377973022461 L 237.23246321868896 403.9084633178711 L 237.48412895965578 402.28441677856443 L 237.71057518603652 400.6616780936606 L 237.9343232331276 399.02442607951167 L 238.15644805627318 397.39905183014645 L 238.37835501736868 395.77527176265187 L 238.60256251831447 394.13465774486167 L 238.82557721593324 392.50277193576426 L 239.05023061960085 390.85889507327465 L 239.27268229582546 389.2311291120312 L 239.49644995734002 387.59373357147024 L 239.71949896275905 385.9615967187737 L 239.9436989364624 384.3210377807617 L 240.16399473404476 382.7090472271481 L 240.38671847106738 381.0792904905871 L 240.61114187815133 379.4370966030988 L 240.83251816251163 377.81719970493185 L 241.05827041561156 376.1652821311615 L 241.27961641315918 374.54560685345444 L 241.50436795509327 372.90101187486715 L 241.72787683656347 371.26550992915264 L 241.94967553426827 369.6425220672519 L 242.17374759292602 368.00289913368226 L 242.3953555521732 366.3813069797126 L 242.61860096859186 364.74773291087524 L 242.84321274000126 363.10416068790994 L 243.0643966437477 361.4856715139741 L 243.28864560267817 359.8447541318872 L 243.51344457561058 358.19981208212533 L 243.73625635469298 356.5694111073615 L 243.9590941704288 354.9388196122162 L 244.18170286361442 353.30990469642757 L 244.40382727504615 351.6845334597337 L 244.62746658345918 350.04807712904176 L 244.85008823311503 348.4190674056905 L 245.07365750819875 346.78312353627354 L 245.29564896859077 345.1587251543615 L 245.5201736420989 343.5157902608216 L 245.74248700669 341.88903637992235 L 245.9665845355784 340.2492270707087 L 246.18777914569213 338.63065955409377 L 246.41408178863196 336.97471456249485 L 246.63658354429725 335.3465821503875 L 246.85894536099303 333.7194737264789 L 247.08056198683474 332.0978181556459 L 247.3045964074731 330.4584706341922 L 247.53002468081564 328.8089237470813 L 247.75213186966803 327.1836785347397 L 247.97351013994216 325.5637671048641 L 248.19611448284147 323.9348840218228 L 248.421108717978 322.28851316210626 L 248.64572491377498 320.6449085641657 L 248.86680586194993 319.0271727564335 L 249.09069932102133 317.388856705924 L 249.31437928459513 315.75210288551216 L 249.5378667034479 314.1167579901679 L 249.7586368976757 312.5012960906662 L 249.9554636077881 310.86387711906434 L 249.73138626194 309.2393163616657 L 249.5049554901123 307.5976932659149 L 249.32099800872803 305.951649230957 L 249.56041619110107 304.6426555633545 L 250.66087300872803 304.59843902587886 L 251.7643562850952 304.47843701171877 L 252.87585271453858 304.25501835632326 L 253.96651412200927 303.89180499267576 L 254.98056649017335 303.2734631347656 L 255.88522469329834 302.31119262695313 L 256.6264648361206 301.07123484802247 L 257.6239577865601 300.7560015258789 L 259.5794635620117 382.0686997356415 L 259.36000647233425 380.4523138635941 L 259.136995743664 378.8097540735803 L 258.916464147443 377.18545404756765 L 258.69540421235564 375.55726260259746 L 258.4710446193963 373.9047679083012 L 258.25083862355166 372.2828660542914 L 258.02854578475257 370.6455937992905 L 257.8073480559045 369.0163874502748 L 257.5846275987625 367.37596562170984 L 257.36218357130326 365.73757980407726 L 257.1416005502895 364.11290101468745 L 256.9213745521959 362.4908518364211 L 256.6996097788978 360.8574689869373 L 256.47711178961976 359.2186857197547 L 256.2546338957555 357.58005046302367 L 256.0328788157702 355.9467390085161 L 255.81250030803682 354.32356653809546 L 255.59102368676662 352.69230603912473 L 255.36899800872803 351.0570015258789 L 255.14697233068944 349.4216970126331 L 254.92549570941924 347.7904365136623 L 254.7020667159122 346.1447960422546 L 254.48033880426922 344.511684693038 L 254.25789645181595 342.8733112124689 L 254.03838623855822 341.25653406482047 L 253.81662146526017 339.62315121533675 L 253.59356784152985 337.9802754867077 L 253.3730581495918 336.3561367941639 L 253.15069994608615 334.71838310295897 L 252.92807889339142 333.07869342638037 L 252.70699527481756 331.45032754342304 L 252.4871573939044 329.83113699746644 L 252.26261685714684 328.1773095825021 L 252.04259180510044 326.5567404491603 L 251.8215318700131 324.92854900419013 L 251.59804813063144 323.2825053083599 L 251.37798954512178 321.66168918816373 L 251.15542421722412 320.04530331611636 L 250.9258988800049 321.693582144022 L 250.7016110702008 323.30424897817755 L 250.47180983626842 324.9545090893544 L 250.244625224635 326.58597858164694 L 250.01858427608013 328.2092351434566 L 249.7927319726497 329.83113699746644 L 249.56473931747115 331.46840925246727 L 249.33786985198594 333.09761560148297 L 249.1094386138916 334.738037430048 L 248.88129089342058 336.3764232476805 L 248.65795202636718 337.9802754867077 L 248.42917907895148 339.62315121533675 L 248.20172802941502 341.25653406482047 L 247.9735249634888 342.89531733200306 L 247.7484433466345 344.511684693038 L 247.52103010392375 346.1447960422546 L 247.29187216186523 347.7904365136623 L 247.06471665287017 349.4216970126331 L 246.83699800872802 351.0570015258789 L 246.61243957048842 352.6696118104872 L 246.38527238382585 354.30095616970766 L 246.15609461688996 355.9467390085161 L 245.93175478363037 357.55777943611145 L 245.70353598730267 359.1966756672398 L 245.47528765909934 360.83578397415 L 245.24778208662383 362.46955836648965 L 245.02184514047207 364.0920680610421 L 244.79270512403548 365.73757980407726 L 244.5672954331208 367.3563031469583 L 244.33876236999035 368.99745620656387 L 244.11177600109576 370.62750206818805 L 243.88603169345856 372.2486283774078 L 243.65986415939034 373.8727939814352 L 243.42937079282106 375.5280244701109 L 243.20218618118764 377.15949396240336 L 242.97542170608043 378.7879463492669 L 242.74809713745117 380.42042090773583 L 242.52326021575928 382.0350310516357 L 243.61038615095615 382.0800015258789 L 244.71288414680959 382.0800015258789 L 245.8273418609351 382.0800015258789 L 246.93359356807173 382.0800015258789 L 248.05718980515005 382.0800015258789 L 249.16324737453462 382.0800015258789 L 250.27506598488986 382.0800015258789 L 251.37387739764154 382.0800015258789 L 252.49256997191907 382.0800015258789 L 253.61283888244628 382.0800015258789 L 254.71397680158913 382.0800015258789 L 255.82567331700213 382.0800015258789 L 256.93347063700855 382.0800015258789 L 258.0516646129042 382.0800015258789 L 259.1591889266968 382.0800015258789 L 257.8536291732788 300.7606169166565 L 257.8536291732788 300.7606169166565 Z" fill-opacity="1"/></g><g><path fill="rgb(255,255,255)" stroke="none" paint-order="stroke fill markers" d=" M 315.5311951828003 375.8268009233475 L 316.6303093338013 375.8268009233475 L 317.6795287451744 375.8988403989594 L 317.57017225021866 377.33901783839866 L 317.46017939299344 378.78757589194083 L 317.35128530090583 380.22166368687556 L 317.24234144804905 381.6564068094804 L 317.13371878433225 383.08692001091447 L 317.02422535718324 384.5289007877376 L 316.9143600160135 385.97577951033253 L 316.8057377455756 387.4062875324547 L 316.69611892896893 388.8499196338578 L 316.58824965286254 390.27051104838625 L 316.4775623096386 391.72821518024557 L 316.36844598085156 393.1652297357797 L 316.2598418399924 394.59549899924036 L 316.15072534868864 396.0325156950489 L 316.04196797943115 397.4648029098216 L 315.93284572601317 398.901895490166 L 315.8230094232848 400.34839178912756 L 315.7141786207603 401.78164608806304 L 315.60562483984233 403.2112521330195 L 315.49570081567765 404.6589036851148 L 315.3877026181221 406.08119293901393 L 315.2780639386177 407.52508662613405 L 314.8632220897675 408.53999972343445 L 313.7563596814573 408.53999972343445 L 312.6498091951124 408.53999972343445 L 311.5325065905638 408.53999972343445 L 310.419711848408 408.53999972343445 L 309.3147631415464 408.53999972343445 L 308.2123352854252 408.53999972343445 L 307.09150437502933 408.53999972343445 L 305.9879565637074 408.53999972343445 L 304.8688585584164 408.53999972343445 L 303.765680405017 408.53999972343445 L 302.6383846884072 408.53999972343445 L 301.541031652879 408.53999972343445 L 300.4304520294666 408.53999972343445 L 299.31099031784015 408.53999972343445 L 298.2119869604446 408.53999972343445 L 297.087751662761 408.53999972343445 L 295.9799795803842 408.53999972343445 L 294.8680813208683 408.53999972343445 L 293.7567529665418 408.53999972343445 L 292.6509881771021 408.53999972343445 L 291.54445556935667 408.53999972343445 L 290.4211875595264 408.53999972343445 L 289.31267664899303 408.53999972343445 L 288.2065650147237 408.53999972343445 L 287.09584053492546 408.53999972343445 L 285.98086946661397 408.53999972343445 L 284.87211685330794 408.53999972343445 L 283.7509658126831 408.53999972343445 L 282.65061712643507 408.53999972343445 L 281.5296358053684 408.53999972343445 L 281.0729988937378 407.7070603008615 L 281.744874382019 406.97669582569796 L 282.8182265548706 406.6023401143316 L 283.82862047576907 405.9959525022964 L 284.6150515060425 405.0043518306603 L 285.0895562362671 403.7079720259163 L 285.34060234832765 402.3025313578631 L 285.47440264129636 400.8557961326087 L 285.54917833709715 399.4320170863219 L 285.59060283660887 397.9725060528203 L 285.6073970870972 396.54339687977586 L 285.6089988937378 395.08408615449446 L 285.6089988937378 393.63895808135703 L 285.6089988937378 392.2083579963776 L 285.6089988937378 390.7702195870429 L 285.6089988937378 389.3285521873231 L 285.6089988937378 387.88202433878786 L 285.6089988937378 386.4343260926004 L 285.6089988937378 384.97396532453155 L 285.6089988937378 383.53984659912805 L 285.6089988937378 382.0859237427075 L 285.6089988937378 380.64358714607874 L 285.6089988937378 379.20026662533184 L 285.6089988937378 377.7632745267763 L 285.6089988937378 376.3151993579966 L 285.6089988937378 374.86053533939673 L 285.6089988937378 373.42837318160053 L 285.6089988937378 371.97318059042436 L 285.6089988937378 370.54864730373805 L 285.6089988937378 369.0813221805067 L 285.6089988937378 367.65108442065844 L 285.6089988937378 366.20885283863174 L 285.6089988937378 364.75674852838097 L 285.6089988937378 363.3234921007104 L 285.6089988937378 361.8714300973332 L 285.6089988937378 360.41586536465826 L 285.6089988937378 358.9722289948013 L 285.6089988937378 357.5291874364217 L 285.6089988937378 356.08874817825523 L 285.6089988937378 354.65291870903786 L 285.6089988937378 353.19731476905935 L 285.6089988937378 351.7506965543786 L 285.6089988937378 350.3151851589498 L 285.6089988937378 348.8671776250729 L 285.6089988937378 347.43512229859334 L 285.6089988937378 345.97112747666665 L 285.6089988937378 344.529133795008 L 285.6089988937378 343.08741838515255 L 285.6089988937378 341.64995578514294 L 285.6089988937378 340.19787911657636 L 285.6089988937378 338.76014800615167 L 285.6089988937378 337.32003377840954 L 285.6089988937378 335.8642427508261 L 285.6089988937378 334.4240504468533 L 285.6089988937378 332.97080067787317 L 285.6089988937378 331.5396437071925 L 285.6089988937378 330.09609611837107 L 285.6089988937378 328.6552961180587 L 285.6089988937378 327.2038739830709 L 285.6089988937378 325.75800288216885 L 285.6089988937378 324.3216295799727 L 285.60899394989013 322.85984348200867 L 285.6000690689087 321.4253535695681 L 285.56983867645266 319.9714460781889 L 285.51071025848387 318.53759913371175 L 285.4072701339722 317.11401075514254 L 285.2190281906128 315.6896714885393 L 284.8507313156128 314.32406216362955 L 284.1963933029175 313.16398835364174 L 283.2573720626831 312.4168665426671 L 282.191429069519 311.95740018989136 L 281.1049921798706 311.67061451925827 L 281.0729988937378 310.27577090587 L 282.17408133500817 310.26000332832336 L 283.28456652069093 310.26000332832336 L 284.40209795280543 310.26000332832336 L 285.50820071405917 310.26000332832336 L 286.6315616273284 310.26000332832336 L 287.7376964378953 310.26000332832336 L 288.8527504648194 310.26000332832336 L 289.9589034836963 310.26000332832336 L 291.0668343323991 310.26000332832336 L 292.1873921737671 310.26000332832336 L 293.2905785525041 310.26000332832336 L 294.3938106451854 310.26000332832336 L 295.5024933089614 310.26000332832336 L 296.6201064433083 310.26000332832336 L 297.73856397963317 310.26000332832336 L 298.85403632736205 310.26000332832336 L 299.1089988937378 311.3662509989281 L 298.2373952560425 311.8800833592312 L 297.18146849823 312.2824650827532 L 296.1974813156128 312.94124561278846 L 295.4597636642456 314.0153689864758 L 295.0326152267456 315.3453298751931 L 294.81228112030027 316.7472474751383 L 294.6917748336792 318.18620495714765 L 294.6234310836792 319.62256271696236 L 294.5868861618042 321.0828803391795 L 294.5735439529419 322.5200690567579 L 294.5729988937378 323.9736523470107 L 294.5729988937378 325.4203496326614 L 294.5729988937378 326.8634480284645 L 294.5729988937378 328.299150318835 L 294.5729988937378 329.7452947495536 L 294.5729988937378 331.17965543371673 L 294.5729988937378 332.6419316563982 L 294.5729988937378 334.0676339939326 L 294.5729988937378 335.5220633989223 L 294.5729988937378 336.9714535572428 L 294.5729988937378 338.40392021421854 L 294.5729988937378 339.8589927096508 L 294.5729988937378 341.30570781385546 L 294.5729988937378 342.73728806346526 L 294.5729988937378 344.18797363711053 L 294.5729988937378 345.6408689748367 L 294.5729988937378 347.07828377506706 L 294.5729988937378 348.51025626912764 L 294.5729988937378 349.9622821655068 L 294.5729988937378 351.4034538527103 L 294.5729988937378 352.86024781429086 L 294.5729988937378 354.3013200710218 L 294.5729988937378 355.7539576276597 L 294.5729988937378 357.1865243539819 L 294.5729988937378 358.6269563747105 L 294.5729988937378 360.0736539689493 L 294.5729988937378 361.52501741580204 L 294.5729988937378 362.9642863512721 L 294.5729988937378 364.4050076248598 L 294.5729988937378 365.86078939806805 L 294.5729988937378 367.2997390081022 L 294.5729988937378 368.7354738921905 L 294.5729988937378 370.181475774477 L 294.5729988937378 371.6210121181413 L 294.5729988937378 373.08220829440154 L 294.5729988937378 374.5332978572295 L 294.5729988937378 375.97257900573806 L 294.5729988937378 377.39834993903986 L 294.5729988937378 378.8661349782778 L 294.5729988937378 380.28729171131573 L 294.5729988937378 381.744592364972 L 294.5729988937378 383.17877691281325 L 294.5729988937378 384.64147523102594 L 294.5729988937378 386.0747739910883 L 294.5729988937378 387.5276693273077 L 294.5729988937378 388.96889979814017 L 294.5729988937378 390.41789922119875 L 294.5729988937378 391.8671163676522 L 294.5729988937378 393.30821461329015 L 294.5729988937378 394.732018996371 L 294.5729988937378 396.1892305162729 L 294.5729988937378 397.63851189968636 L 294.5729988937378 399.07577292900214 L 294.5729988937378 400.5188570694799 L 294.5729988937378 401.95745837180584 L 294.5729988937378 403.40822171116815 L 294.5729988937378 404.85776099711615 L 295.01056031036376 405.73199982643126 L 296.11194003105163 405.73199982643126 L 297.23360024282334 405.73199982643126 L 298.34153025507925 405.73199982643126 L 299.4542175209522 405.73199982643126 L 300.5736335372925 405.73199982643126 L 301.67651000785827 405.73199982643126 L 302.79152715849875 405.73199982643126 L 303.9083774337769 405.72983071335165 L 305.00748952484133 405.66900851480744 L 306.1108055343628 405.5053408991982 L 307.1979774093628 405.2071280195116 L 308.23960985565185 404.73450238071945 L 309.21770067596435 404.01789168923113 L 310.01393700408937 403.04295087721346 L 310.65973122406007 401.86020474750063 L 311.1849260482788 400.5925943447775 L 311.63174172973635 399.26280752069005 L 312.0132586593628 397.9169028474623 L 312.3514763412476 396.5386473255067 L 312.6548561706543 395.13733520268164 L 312.9277565612793 393.74738896460207 L 313.18519259643557 392.332643069229 L 313.4255723571777 390.92709635564745 L 313.653337272644 389.5246611142723 L 313.8734767150879 388.10754713655814 L 314.0853504562378 386.68942786865864 L 314.2914528217316 385.26141590531364 L 314.49134906196593 383.8327962555667 L 314.6846238937378 382.4124381817877 L 314.87411410713196 380.9841402168663 L 315.0562907733917 379.5788859318628 L 315.2374150695801 378.1517230022239 L 315.41736803436277 376.7051921020658 L 315.5311951828003 375.8268009233475 L 315.5311951828003 375.8268009233475 Z" fill-opacity="1"/></g><g><path fill="rgb(255,255,255)" stroke="none" paint-order="stroke fill markers" d=" M 356.13919593811033 373.2996018271446 L 357.23831008911134 373.2996018271446 L 358.2875295004845 373.36055831006564 L 358.1781730055287 374.57917006070227 L 358.0681801483035 375.80487310060903 L 357.9592860562159 377.0183320748257 L 357.8503422033591 378.2323455571034 L 357.74171953964236 379.4427798751046 L 357.6322261124933 380.6629175266936 L 357.5223607713236 381.8871995941774 L 357.41373850088564 383.0976295296837 L 357.304119684279 384.31916445599876 L 357.1962504081726 385.5212034153592 L 357.08556306494864 386.7546454450628 L 356.9764467361616 387.970580909162 L 356.8678425953025 389.18080881809675 L 356.7587261039987 390.3967460931975 L 356.6499687347412 391.6086814994959 L 356.54084648132323 392.8246829845923 L 356.4310101785949 394.048641462829 L 356.3221793760704 395.26139517115905 L 356.2136255951524 396.4710618951729 L 356.1037015709877 397.6959978953491 L 355.99570337343215 398.899473488107 L 355.8860646939278 400.1212297561955 L 355.4780298409462 400.9800024271011 L 354.36799937820433 400.9800024271011 L 353.25368531769516 400.9800024271011 L 352.14319319581983 400.9800024271011 L 351.0398644146919 400.9800024271011 L 349.92679124063255 400.9800024271011 L 348.81526795959473 400.9800024271011 L 347.7062151298523 400.9800024271011 L 346.59295301294327 400.9800024271011 L 345.4866728577614 400.9800024271011 L 344.3730090290904 400.9800024271011 L 343.25873720532655 400.9800024271011 L 342.1499725494385 400.9800024271011 L 341.027129514873 400.9800024271011 L 339.9198483914733 400.9800024271011 L 338.80742643898725 400.9800024271011 L 337.69397632068393 400.9800024271011 L 336.58361069983243 400.9800024271011 L 335.48044223970174 400.9800024271011 L 334.3639323029518 400.9800024271011 L 333.2636516082883 400.9800024271011 L 332.1365634951591 400.9800024271011 L 331.03699108070134 400.9800024271011 L 329.92533802366256 400.9800024271011 L 328.81197558945416 400.9800024271011 L 327.708929494381 400.9800024271011 L 326.592157977879 400.9800024271011 L 325.48673402404785 400.9800024271011 L 324.3616378695369 400.9800024271011 L 323.25647216415405 400.9800024271011 L 322.13802653884886 400.9800024271011 L 321.24899964904785 400.75094407252703 L 321.50106996154784 399.74582818160115 L 322.5774181060791 399.48213916221397 L 323.61292347717284 399.0648744559044 L 324.5170147857666 398.366373366546 L 325.11723744201663 397.32524912523024 L 325.4401695709229 396.1638456820888 L 325.60652674865725 394.9621449358277 L 325.7014486236572 393.73353944044845 L 325.75375329589843 392.5224407485797 L 325.7792845611572 391.29268665316937 L 325.78499964904785 390.08821038313795 L 325.78499964904785 388.8519105764797 L 325.78499964904785 387.63356463782486 L 325.78499964904785 386.40023448873035 L 325.78499964904785 385.1800554069915 L 325.78499964904785 383.9672007997648 L 325.78499964904785 382.74395691462746 L 325.78499964904785 381.5189857676109 L 325.78499964904785 380.2939613770427 L 325.78499964904785 379.0829317449573 L 325.78499964904785 377.86101837507465 L 325.78499964904785 376.63537951357546 L 325.78499964904785 375.41249694348727 L 325.78499964904785 374.1780780901556 L 325.78499964904785 372.95668388895035 L 325.78499964904785 371.753164835695 L 325.78499964904785 370.5293238403254 L 325.78499964904785 369.3088230229102 L 325.78499964904785 368.0727255701552 L 325.78499964904785 366.84505956839286 L 325.78499964904785 365.62837281164406 L 325.78499964904785 364.4026469309006 L 325.78499964904785 363.1921484164573 L 325.78499964904785 361.9763652305035 L 325.78499964904785 360.7343920657778 L 325.78499964904785 359.51311653796586 L 325.78499964904785 358.29168372826365 L 325.78499964904785 357.0717922810854 L 325.78499964904785 355.85514084084514 L 325.78499964904785 354.643428051957 L 325.78499964904785 353.4161097190441 L 325.78499964904785 352.19747155574333 L 325.78499964904785 350.96744986393117 L 325.78499964904785 349.7501819426873 L 325.78499964904785 348.5262316033223 L 325.78499964904785 347.29844885193916 L 325.78499964904785 346.0699135764707 L 325.78499964904785 344.8641719528321 L 325.78499964904785 343.62411088677123 L 325.78499964904785 342.41423793281893 L 325.78499964904785 341.1810423668964 L 325.78499964904785 339.9687625217779 L 325.78499964904785 338.7477029329396 L 325.78499964904785 337.52781837897993 L 325.78499964904785 336.3046737820811 L 325.78499964904785 335.07923159486137 L 325.78499964904785 333.8592735941425 L 325.78499964904785 332.6371505887876 L 325.78499964904785 331.4087276059005 L 325.78499964904785 330.1963982784753 L 325.78499964904785 328.97373342370406 L 325.7816576080322 327.7371143527879 L 325.76077479553226 326.523474873358 L 325.7138082427979 325.29343731007657 L 325.6301138458252 324.0846732061185 L 325.48093324279785 322.86731850749186 L 325.1965013275146 321.69198049983936 L 324.6647765045166 320.6222710955505 L 323.8171472320557 319.850821554904 L 322.7908234100342 319.3868777795895 L 321.7143640289307 319.0972420463831 L 321.24899964904785 318.3032057132549 L 321.91561800068615 317.8200006246567 L 323.0432233123779 317.8200006246567 L 324.15216664201023 317.8200006246567 L 325.25785524057875 317.8200006246567 L 326.37201505368483 317.8200006246567 L 327.48686940594763 317.8200006246567 L 328.5932738879295 317.8200006246567 L 329.69172672135477 317.8200006246567 L 330.8120754597783 317.8200006246567 L 331.92283090669383 317.8200006246567 L 333.0381955086784 317.8200006246567 L 334.151486174643 317.8200006246567 L 335.2566794419363 317.8200006246567 L 336.3727240142822 317.8200006246567 L 337.47064767020663 317.8200006246567 L 338.5947910475982 317.8200006246567 L 339.6919510655403 317.8200006246567 L 340.8064344224557 317.8200006246567 L 341.9211840493606 317.8200006246567 L 343.0427510197759 317.8200006246567 L 344.1534532342553 317.8200006246567 L 345.25845202561186 317.8200006246567 L 346.3717392106056 317.8200006246567 L 347.4823444163324 317.8200006246567 L 348.59690820853876 317.8200006246567 L 349.696846118927 317.8200006246567 L 350.8090661532516 317.8200006246567 L 351.9182969815507 317.8200006246567 L 353.0338494316414 317.8200006246567 L 354.149242565155 317.8200006246567 L 354.68364458646624 318.5180831380627 L 354.79173502874374 319.7225866578966 L 354.9011174569726 320.9414873954049 L 355.01049003877023 322.1602784094188 L 355.1206860505715 323.388245297976 L 355.2286544098258 324.59138838826556 L 355.33780856568086 325.80774537748385 L 355.4481356816292 327.03717322228545 L 355.5565539797023 328.24533019612977 L 355.66544101359045 329.4587105174521 L 355.7757354850769 330.68777458939496 L 355.88483068090676 331.90347455884 L 355.9937759680748 333.11750402433444 L 356.1018218032718 334.3215104661255 L 356.2117280558571 335.54624842908953 L 356.3207517067371 336.7611511389234 L 356.4295168403611 337.9731730672725 L 356.5382334427908 339.18465418930214 L 356.64794917314964 340.40726907193084 L 356.75699457929284 341.6224142110726 L 356.86682328653336 342.84628804915354 L 356.9749464079738 344.0511557285369 L 357.08500483173134 345.27758940768706 L 356.2014805908203 345.5004012246132 L 355.0867232818604 345.5004012246132 L 354.8111655344963 344.447588338015 L 354.65516395378114 343.24416980421256 L 354.4934515209198 342.0244639763846 L 354.33050987243655 340.82493790000865 L 354.1607999420166 339.60801100900846 L 353.98738068389895 338.3997959399439 L 353.81044367218016 337.20513951756607 L 353.6247593460083 335.9942916641732 L 353.4307479324341 334.77788412438053 L 353.2314915599823 333.5826158441937 L 353.0221443309784 332.3884434245119 L 352.79822032165526 331.18443080629066 L 352.56066040802 329.99438215302513 L 352.3031304397583 328.8118801803736 L 352.0142076568603 327.62528616432894 L 351.68936390686036 326.45561660772705 L 351.318608291626 325.30806796835265 L 350.88078608703614 324.1783454020575 L 350.3569359893799 323.1050014456879 L 349.699399307251 322.12504870990944 L 348.84344706726074 321.3431278525077 L 347.8416661529541 320.80544526944254 L 346.7859865875244 320.4701782333673 L 345.69082133483886 320.28031593982337 L 344.57003871154785 320.2018014575308 L 343.46926250076297 320.1960006761551 L 342.3555675927997 320.1960006761551 L 341.2492214584947 320.1960006761551 L 340.13299556607006 320.1960006761551 L 339.02084720554205 320.1960006761551 L 337.9038701699376 320.1960006761551 L 336.79938105814904 320.1960006761551 L 335.68427520370483 320.1960006761551 L 334.74899964904785 320.38775360523033 L 334.74899964904785 321.61512425272434 L 334.74899964904785 322.8311686374783 L 334.74899964904785 324.043967558474 L 334.74899964904785 325.2644942779445 L 334.74899964904785 326.485677209923 L 334.74899964904785 327.7107788292406 L 334.74899964904785 328.93733987413793 L 334.74899964904785 330.17111927321946 L 334.74899964904785 331.3749339827935 L 334.74899964904785 332.6111112212143 L 334.74899964904785 333.82251097731853 L 334.74899964904785 335.05249419367976 L 334.74899964904785 336.26956123434525 L 334.74899964904785 337.4939971232522 L 334.74899964904785 338.72063266835056 L 334.74899964904785 339.94429867759044 L 334.74899964904785 341.15982595892194 L 334.74899964904785 342.38744203055774 L 334.74899964904785 343.60813593671935 L 334.74899964904785 344.8276927958025 L 334.74899964904785 346.05007412882037 L 334.74899964904785 347.2766654617255 L 334.74899964904785 348.4945842177656 L 334.74899964904785 349.70926689518075 L 334.74899964904785 350.9364991721187 L 334.74899964904785 352.15613217960987 L 334.74899964904785 353.3863198607687 L 334.74899964904785 354.60919195079134 L 334.74899964904785 355.829509558537 L 335.84587464904786 355.8360014486313 L 336.9701715240478 355.8360014486313 L 338.07397825068233 355.8360014486313 L 339.19487239217756 355.8360014486313 L 340.2973776090741 355.8360014486313 L 341.41122568941114 355.8360014486313 L 342.5213741607666 355.81485760051675 L 343.6255899505615 355.68249645873186 L 344.6890733795166 355.3533474342638 L 345.5926604156494 354.6413305243 L 346.05887431335447 353.54720164316353 L 346.2784709625244 352.3609273498736 L 346.3807262115478 351.1471138470024 L 346.4127159957886 349.9141468891262 L 346.3908380279541 348.69001162089455 L 346.3497769012451 347.4728005822442 L 346.3026233062744 346.2452487444194 L 346.252752243042 345.02684673284284 L 346.20119779968263 343.8154804346145 L 347.22639112854006 343.71840118598936 L 348.3327418365478 343.71840118598936 L 348.44981214904783 344.91800277449005 L 348.5430295191109 346.12283730866926 L 348.63716753193734 347.339571150823 L 348.73200924291837 348.56540029182133 L 348.82568747901917 349.7761915196677 L 348.92028369646147 350.9988476566098 L 349.0153376196288 352.2274196401756 L 349.1094305748642 353.4435711129524 L 349.2029406072907 354.6521883082618 L 349.2981236209869 355.88242878695024 L 349.39113300837204 357.08457514495854 L 349.4860276354812 358.31108822692846 L 349.58058551124856 359.5332487977111 L 349.67415485888347 360.74263264210504 L 349.76911234523726 361.96995817982963 L 349.86306671643257 363.18431845384924 L 349.956530841846 364.3923423010013 L 350.0509711126387 365.6129828274535 L 350.1456824114323 366.8371263908928 L 350.23903937840464 368.0437652151636 L 350.33470083096626 369.2801895163213 L 350.42829815873506 370.48993500395363 L 350.44513258361815 371.63640179109575 L 349.33588148498535 371.63640179109575 L 348.3422546234131 371.4999452070224 L 348.20853343200685 370.28600843754697 L 348.0699268951416 369.0751755392936 L 347.92445994567873 367.86104616574903 L 347.7705744476318 366.6461631438117 L 347.60720335388186 365.4436031568094 L 347.42671995544436 364.23363267159965 L 347.22160548400876 363.03479832707313 L 346.9638003082275 361.85423236520575 L 346.57841831970217 360.70044426036407 L 345.99296046447756 359.65341591125434 L 345.1485207977295 358.88911039542086 L 344.0982695770264 358.4862026230162 L 343.00387968444824 358.29525540208067 L 341.8895364227295 358.21993225591683 L 340.78664181023834 358.2120015001297 L 339.6745690765381 358.2120015001297 L 338.5621884853244 358.2120015001297 L 337.44759997850656 358.2120015001297 L 336.3437706794739 358.2120015001297 L 335.2227923622131 358.2120015001297 L 334.74899964904785 358.9130803117119 L 334.74899964904785 360.1330183097602 L 334.74899964904785 361.3478835229022 L 334.74899964904785 362.5730306334244 L 334.74899964904785 363.7859284260948 L 334.74899964904785 365.01827877833006 L 334.74899964904785 366.2404543691985 L 334.74899964904785 367.4534167613489 L 334.74899964904785 368.6927684219685 L 334.74899964904785 369.8950417208897 L 334.74899964904785 371.1311373476512 L 334.74899964904785 372.33916328246295 L 334.74899964904785 373.56889057981846 L 334.74899964904785 374.7866722963152 L 334.74899964904785 376.01669708607886 L 334.74899964904785 377.24001412761163 L 334.74899964904785 378.46716983266265 L 334.74899964904785 379.6793655703348 L 334.74899964904785 380.90217445875885 L 334.74899964904785 382.1167715226944 L 334.74899964904785 383.34791142113033 L 334.74899964904785 384.5618775938856 L 334.74899964904785 385.7959786493968 L 334.74899964904785 387.01575156210555 L 334.74899964904785 388.228294089376 L 334.74899964904785 389.46366967974376 L 334.74899964904785 390.6720367720365 L 334.74899964904785 391.9114279409419 L 334.74899964904785 393.1355546260777 L 334.74899964904785 394.35769356762694 L 334.74899964904785 395.56803740024645 L 334.74899964904785 396.7899726122083 L 334.74899964904785 398.01743819421256 L 335.31804145812987 398.6040023756027 L 336.437769170627 398.6040023756027 L 337.5575299636126 398.6040023756027 L 338.660019764781 398.6040023756027 L 339.7620443099737 398.6040023756027 L 340.8751063040495 398.6040023756027 L 341.98415589904783 398.6040023756027 L 343.10133830650153 398.6040023756027 L 344.2203305202722 398.6040023756027 L 345.3253284454346 398.6040023756027 L 346.4369550628662 398.55709195512185 L 347.5294687652588 398.399502172806 L 348.6107706451416 398.09416807500156 L 349.6311808013916 397.60472714642447 L 350.5288327484131 396.9050115184656 L 351.25576292419436 395.96296462304724 L 351.82582151794435 394.9169677253759 L 352.29584897613523 393.8228678481463 L 352.7029218902588 392.68511709106434 L 353.0628473892212 391.51531701688145 L 353.376362569809 390.35772396200616 L 353.66436595153806 389.16023875233554 L 353.9190334320068 387.98405781863937 L 354.15864627838135 386.7780243871954 L 354.3776865386963 385.59210652472984 L 354.58668460845945 384.38697855900364 L 354.7828530330658 383.19103911028424 L 354.9714752407074 381.9824395128605 L 355.15248634338377 380.7689598381597 L 355.3258242340088 379.55804672597634 L 355.4914295864105 378.3568133844725 L 355.6519698638916 377.1512481508612 L 355.8074086055756 375.9457226843253 L 355.9604462337494 374.72227353976575 L 356.1055829238892 373.52869530363716 L 356.13919593811033 373.2996018271446 L 356.13919593811033 373.2996018271446 Z" fill-opacity="1"/></g><g><path fill="rgb(255,255,255)" stroke="none" paint-order="stroke fill markers" d=" M 389.2912020187378 356.8137065200806 L 389.6914542770386 357.85007397460936 L 390.0920186961889 358.88724970276655 L 390.49303160858153 359.92558670806886 L 390.88901132155956 360.95089132202975 L 391.29319208078084 361.99743078787066 L 391.6932412289381 363.03327233220637 L 392.0944674606323 364.0721616821289 L 392.4908223524243 365.09843774123306 L 392.8936279929727 366.1414166319389 L 393.29159542761744 367.17186802521536 L 393.6901497297287 368.20383898603916 L 394.0957216015011 369.2539804397356 L 394.4933813669737 370.2836351896201 L 394.89438200056554 371.3219404015988 L 395.29270218767226 372.35330517178585 L 395.6911934661865 373.38511294651033 L 396.09711362373827 374.4361562115997 L 396.4912454931885 375.4566762307119 L 396.89808411729337 376.5100976681262 L 397.29827844671905 377.5463151282463 L 397.69830607537926 378.5821009524558 L 398.0956911205053 379.6110443728715 L 398.4953923574537 380.6459850756843 L 398.8933662499189 381.6764531901032 L 399.2987379377037 382.7260763102602 L 399.69673812051116 383.75661249788664 L 400.0962457833737 384.7910519820843 L 400.49555095005036 385.8249671458006 L 400.8958397979736 386.86142934131624 L 401.2945895385742 387.8939063482284 L 401.72025667572024 388.93484549713133 L 402.17092464447023 389.95011405181884 L 402.6561138534546 390.9504274673462 L 403.1804954147339 391.9178686218262 L 403.7744253768921 392.8626088638306 L 404.45834490203856 393.738012878418 L 405.2819849777222 394.48263790893554 L 406.2199828414917 395.06894940185543 L 407.2405660324097 395.5225993347168 L 408.29305187225344 395.8570605163574 L 409.37912003326414 396.1007334976196 L 409.48499871063234 397.12913970947267 L 408.4536039428711 397.2000015258789 L 407.3367109605223 397.2000015258789 L 406.22559834890257 397.2000015258789 L 405.1060259433985 397.2000015258789 L 404.00585592405497 397.2000015258789 L 402.89460696661473 397.2000015258789 L 401.7799925800841 397.2000015258789 L 400.66384838199616 397.2000015258789 L 399.55985631322676 397.2000015258789 L 398.4484853191823 397.2000015258789 L 397.340427311996 397.2000015258789 L 396.2311162824873 397.2000015258789 L 395.1177254335266 397.2000015258789 L 394.00087726581097 397.2000015258789 L 392.8999857114554 397.2000015258789 L 391.77703936302663 397.2000015258789 L 390.6804087487459 397.2000015258789 L 389.5539960449487 397.2000015258789 L 388.45431674110887 397.2000015258789 L 388.1009987106323 396.4381958007813 L 388.8928086471558 396.0065871887207 L 389.9850924606323 395.8054937133789 L 391.05939714813235 395.5148745727539 L 392.01588665008546 394.9917330932617 L 392.50283586883546 394.00691864013675 L 392.4647039718628 392.90052014160153 L 392.2298959274292 391.82507012939453 L 391.90407164764406 390.7487598876953 L 391.5352791519165 389.7072160186768 L 391.13467917633056 388.67809480285644 L 390.71951709747316 387.63399589157103 L 390.3277037489414 386.6124825186133 L 389.92951625272633 385.5743508320525 L 389.5311571750641 384.53577180814744 L 389.12748775807023 383.4833479709849 L 388.7360286743641 382.4627582170367 L 388.33359397125247 381.41355345535277 L 387.9384866104126 380.3834521217346 L 387.53736788115276 379.33767829187866 L 387.1404673492909 378.3029019052386 L 386.7447215175629 377.27113598680495 L 386.3464207208157 376.23270890957116 L 385.94830242156985 375.19475762939453 L 385.54655777234956 374.14735193678456 L 385.15070785579087 373.1153146543279 L 384.75111971026286 372.0735312749157 L 384.3580307717882 371.04869225674963 L 383.95825254793095 370.0064133159788 L 383.5593791652732 368.96649342547823 L 383.1609998565801 367.92786165638546 L 382.76522826609016 366.8960285811797 L 382.3639602458477 365.84986552840473 L 381.96524335479734 364.8103536338806 L 381.5378860397339 365.164583820343 L 381.09966938948634 366.1733950672671 L 380.65775151610376 367.19072683828324 L 380.2112996926606 368.21849614016804 L 379.7700118170679 369.2343776037721 L 379.32719512176516 370.25377853775024 L 378.8867523327172 371.2677145417044 L 378.44212773895265 372.29127740859985 L 377.99843492046 373.3126952511715 L 377.5600773391724 374.321830933094 L 377.1156695311964 375.3448947410388 L 376.66818619132044 376.3750386797115 L 376.22817264556886 377.3879865298271 L 375.78338883480427 378.41191592752466 L 375.34440315794944 379.4224975377843 L 374.89979589661954 380.4460205039708 L 374.45394400715827 381.4724087078348 L 374.01193369492887 382.48995328077956 L 373.57336356922985 383.4995782576492 L 373.1290467565358 384.522432586872 L 372.68882817387583 385.5358524490371 L 372.2398134071827 386.5695218598619 L 371.80221790504453 387.57690317207573 L 371.3560416793823 388.6044038696289 L 370.92799840545655 389.6183623046875 L 370.51565061187745 390.65295512390134 L 370.1360385055542 391.69630596923827 L 369.81229558563234 392.7572359008789 L 369.6330135421753 393.8604299621582 L 369.9578688278198 394.9022197875977 L 370.8520922164917 395.5281998901367 L 371.9279987106323 395.83650152587893 L 373.0130941696167 396.0168629760742 L 373.9529987106323 396.2887515258789 L 373.7460352144241 397.2000015258789 L 372.6414628753662 397.2000015258789 L 371.5363172302246 397.2000015258789 L 370.4220725107193 397.2000015258789 L 369.3076340059042 397.2000015258789 L 368.19298102669416 397.2000015258789 L 367.0948551169634 397.2000015258789 L 365.9845027923584 397.2000015258789 L 364.8737418889999 397.2000015258789 L 363.7503791730851 397.2000015258789 L 362.6368521414995 397.2000015258789 L 361.52314951038363 397.2000015258789 L 360.7769987106323 396.83436279296876 L 361.1625924606323 396.0493374633789 L 362.2484987106323 395.7993765258789 L 363.3049264450073 395.46431549072264 L 364.31959185028074 395.02024673461915 L 365.2666451950073 394.43599517822264 L 366.0823586349487 393.6865976867676 L 366.76237004852294 392.8090375366211 L 367.3556960372925 391.8726340637207 L 367.895247795105 390.89547927856444 L 368.39010717010495 389.90217459106447 L 368.8512643356323 388.8985562133789 L 369.29544927215574 387.88098959350583 L 369.7409038683586 386.8622184336716 L 370.18507724248246 385.8463774761846 L 370.62985724970696 384.8291491263285 L 371.07824404847247 383.80367191063334 L 371.5239574380815 382.7843088806942 L 371.96875121409073 381.76704904111756 L 372.4120258857869 380.7532634493681 L 372.8558094702326 379.73831395531164 L 373.3039703903198 378.71335333251955 L 373.7448194882683 377.7051151177669 L 374.1920307587087 376.6823263788894 L 374.6346445124447 375.67005233099314 L 375.0787563099563 374.654352201499 L 375.5305774998702 373.6210204060478 L 375.97073024221135 372.61437478236013 L 376.42204478701575 371.582201703039 L 376.8649492603578 370.56926276863646 L 377.3047567646801 369.5634067170843 L 377.7532288837433 368.53773437070845 L 378.19728441119196 367.52216293293236 L 378.6447363040447 366.4988238816857 L 379.0858318958282 365.4900219264031 L 379.53079191565513 364.4723818810582 L 379.9826580102742 363.4389473868832 L 380.42049695587156 362.4375935020447 L 380.65336175918577 361.40003931808474 L 380.25715174168346 360.37560440796614 L 379.85595030164717 359.3382637476921 L 379.45125190049407 358.29188139516117 L 379.0521418088004 357.25994809501617 L 378.6551303894892 356.2334410919324 L 378.25122073775435 355.1890981185278 L 377.84738893464674 354.14495642941165 L 377.4494910357594 353.1161573575139 L 377.04601849579063 352.072944573991 L 376.6481811123416 351.044301969938 L 376.25046901072653 350.0159832927892 L 375.84643089801074 348.97130817252395 L 375.446535481669 347.93734434828906 L 375.0438759994507 346.89623379516604 L 374.6400825414881 345.8521912507042 L 374.2455358262947 344.83205695105994 L 373.84430113221424 343.79463030960875 L 373.43819921445845 342.74461904478073 L 373.03772041768116 341.70914684050064 L 372.63633199133255 340.6713227111129 L 372.23642501115796 339.63732898759844 L 371.84063936371354 338.61399132258447 L 371.4369683126761 337.5702652717037 L 371.0379432987496 336.5385519474074 L 370.63554279558826 335.498111006801 L 370.2329655078547 334.457212974553 L 369.8328537392616 333.4226897530556 L 369.4306015674472 332.38263233584166 L 369.03053392452 331.34822320502997 L 368.625973197937 330.31413287353513 L 368.2018405075073 329.2998530883789 L 367.7438597640991 328.28692791748045 L 367.2410366744995 327.2792695922852 L 366.69702968597414 326.3207794799805 L 366.0777435531616 325.40984588623047 L 365.31770525360105 324.5803374633789 L 364.43218962860107 323.9390874633789 L 363.43649871063235 323.4360015258789 L 362.3830677719116 323.0582256469727 L 361.3086048812866 322.78400689697264 L 360.7769987106323 322.114697265625 L 361.3682465984225 321.6000015258789 L 362.4821380806565 321.6000015258789 L 363.60228724128007 321.6000015258789 L 364.70413951683787 321.6000015258789 L 365.819113720417 321.6000015258789 L 366.9308994421959 321.6000015258789 L 368.0394840403199 321.6000015258789 L 369.15529617296903 321.6000015258789 L 370.2638634925708 321.6000015258789 L 371.38383273463694 321.6000015258789 L 372.4885989130931 321.6000015258789 L 373.59831648294346 321.6000015258789 L 374.70121437164397 321.6000015258789 L 375.81325507051497 321.6000015258789 L 376.92979159332066 321.6000015258789 L 378.0511458516121 321.6000015258789 L 379.1614803756699 321.6000015258789 L 380.2573553525284 321.6000015258789 L 381.3692051554322 321.6000015258789 L 382.0529987106323 322.0392788696289 L 381.6005377731323 322.7421753540039 L 380.4933136520386 322.9278366088867 L 379.4206964645386 323.1817526245117 L 378.3960016403198 323.60471197509764 L 377.7296500778198 324.45995806884764 L 377.64724602508545 325.57483526611327 L 377.84341790008546 326.6594758911133 L 378.1447206954956 327.7267685546875 L 378.5033288650513 328.77936686706545 L 378.89875634002686 329.82023095703124 L 379.3119983649254 330.84636207199094 L 379.7143212762475 331.89337109422684 L 380.11264957334845 332.92998449391126 L 380.51030883163213 333.96485678052903 L 380.9100504252315 335.0051481566429 L 381.3071466419352 336.0385551784262 L 381.7063076498434 337.07733563274144 L 382.1059102095962 338.117265185833 L 382.50022303197255 339.1434286753908 L 382.90392954253406 340.19403838962313 L 383.30081894910427 341.2269072067216 L 383.7007371254563 342.26765812349316 L 384.0942962460518 343.2918601722717 L 384.49829025170953 344.34321806651354 L 384.8966041228175 345.37979392385483 L 385.2924506085711 346.40994863376767 L 385.68817011135815 347.4397728819847 L 386.09033371689077 348.4863673252985 L 386.48595530366805 349.5159367559478 L 386.8863296394348 350.55787478637694 L 387.2834558539391 351.59135987472536 L 387.6817255788371 352.6278208455443 L 388.08228078842166 353.67022958374025 L 388.5031312291026 353.29860859721896 L 388.9316750161052 352.2766964897513 L 389.3604585097386 351.25421277416405 L 389.78803693723677 350.2346026778221 L 390.22155690163373 349.2008243011832 L 390.65101956214755 348.17672103380414 L 391.07808299165964 347.158339009583 L 391.5089207497239 346.13095666342974 L 391.9385576840863 345.10643781995026 L 392.3698322274247 344.07801390891245 L 392.79928632984775 343.0539310492882 L 393.2309646205688 342.0245443560304 L 393.654741374813 341.01399978821723 L 394.08913142931556 339.9781465813266 L 394.51662464660404 338.9587396785617 L 394.94758726355155 337.9310595919946 L 395.37740038245914 336.90612061613797 L 395.8068733859062 335.8819926848412 L 396.2343920326233 334.86252514266965 L 396.6652869811589 333.83500641923865 L 397.09464875459673 332.81114372873304 L 397.5224402350783 331.7910255829692 L 397.95203508377074 330.76660709762575 L 398.3701744918823 329.7188079223633 L 398.7623864059448 328.683080078125 L 399.1315270309448 327.6427626953125 L 399.46873699188234 326.57678839111327 L 399.7228112106323 325.50371636962893 L 399.6797766647339 324.402246887207 L 399.0239983444214 323.53154962158203 L 397.99462993621825 323.14559991455076 L 396.90541213226317 322.9126936035156 L 395.8082858200073 322.74170074462893 L 395.3369987106323 322.0392788696289 L 396.0140171265602 321.6000015258789 L 397.1147541404143 321.6000015258789 L 398.2194288649559 321.6000015258789 L 399.3406511690244 321.6000015258789 L 400.4539383954331 321.6000015258789 L 401.57058918718246 321.6000015258789 L 402.6783677210808 321.6000015258789 L 403.7875917878747 321.6000015258789 L 404.8853129550815 321.6000015258789 L 405.9965077824593 321.6000015258789 L 407.12297738999126 321.6000015258789 L 408.2377606010437 321.6000015258789 L 408.6209987106323 322.3143627929687 L 407.88463896942136 322.82345220947263 L 406.81115496063234 323.1018765258789 L 405.7564542770386 323.4820386352539 L 404.77349871063234 323.9760015258789 L 403.8753326034546 324.6185204467773 L 403.1050704269409 325.4375166015625 L 402.4650337295532 326.33422550964355 L 401.8875836715698 327.29418023681643 L 401.37286980438233 328.2602476196289 L 400.88238944244387 329.2704952850342 L 400.42618230438234 330.28356011962893 L 399.9930561069101 331.30715890533475 L 399.5651024800539 332.3266954869628 L 399.1365229036659 333.3477233012989 L 398.70317773091796 334.38010444813966 L 398.27165677036345 335.40813967769594 L 397.8465045272261 336.421002374582 L 397.4178714760225 337.44215758480226 L 396.9848966719657 338.4736563827023 L 396.5524213645961 339.5039652032005 L 396.1246139272004 340.52315350993723 L 395.69705151367185 341.5417580833435 L 395.2644631189555 342.57233631781486 L 394.83734018689955 343.58989389124235 L 394.40195085475034 344.6271449472448 L 393.9767479068488 345.64012844077496 L 393.54807193267345 346.66138590866325 L 393.11094486010074 347.7027768756747 L 392.68404900300504 348.71979347640274 L 392.25557571451367 349.7405680754557 L 391.823204602113 350.7706286667632 L 391.39345333503746 351.7944478618549 L 390.9620920038223 352.82210279798505 L 390.53126029360294 353.8484959899783 L 390.103505153751 354.8675597055079 L 389.6746047361642 355.8893518768176 L 389.2912020187378 356.8137065200806 L 389.2912020187378 356.8137065200806 Z" fill-opacity="1"/></g><g><path fill="rgb(255,255,255)" stroke="none" paint-order="stroke fill markers" d=" M 417.58500008010867 322.88695598959725 L 417.5762794418335 321.44186801827266 L 417.5467152328491 320.001007072588 L 417.4881009750366 318.5632610804023 L 417.38526399993896 317.1350988189442 L 417.19798693084715 315.70576684317354 L 416.8361096420288 314.34888752892994 L 416.1859046859741 313.1800215805927 L 415.25387734222414 312.4284565690975 L 414.1941635971069 311.9662908756004 L 413.11284853363037 311.67728574704086 L 413.04900038909915 310.29470913759724 L 414.13661590381713 310.26000332832336 L 415.24253658197074 310.26000332832336 L 416.3570807762146 310.26000332832336 L 417.4611023477912 310.26000332832336 L 418.58296641703697 310.26000332832336 L 419.6881034659669 310.26000332832336 L 420.8025594406128 310.26000332832336 L 421.90848811429737 310.26000332832336 L 423.01655018377306 310.26000332832336 L 424.1376107357517 310.26000332832336 L 425.2541355708316 310.26000332832336 L 426.35803717164976 310.26000332832336 L 427.47849480432274 310.26000332832336 L 428.5771718673706 310.26000332832336 L 429.69969361943004 310.26000332832336 L 430.8016978983879 310.26000332832336 L 431.0850003890991 311.33836852314414 L 430.2415140609741 311.87179252701577 L 429.1797733383179 312.27165486586455 L 428.1884494857788 312.92725617238364 L 427.4461571273804 313.9927030937525 L 427.0153832015991 315.314951580409 L 426.790462852478 316.727584063384 L 426.6693138656616 318.16166773575765 L 426.5999331436157 319.6082602280156 L 426.56341664886475 321.0506949857458 L 426.54959859466555 322.5023736464878 L 426.54900038909915 323.92806686811946 L 426.54900038909915 325.38798290445874 L 426.54900038909915 326.8212298937127 L 426.54900038909915 328.26445522286514 L 426.54900038909915 329.71522326836003 L 426.54900038909915 331.1644189229492 L 426.54900038909915 332.6097623649443 L 426.54900038909915 334.06381912279113 L 426.54900038909915 335.48807635385356 L 426.54900038909915 336.9294643152482 L 426.54900038909915 338.3791213154749 L 426.54900038909915 339.82901005623864 L 426.54900038909915 341.271867146907 L 426.54900038909915 342.7252344371349 L 426.54900038909915 344.1600899327305 L 426.54900038909915 345.59598882381783 L 426.54900038909915 347.05453216336815 L 426.54900038909915 348.50758081673206 L 426.54900038909915 349.95181019622544 L 426.54900038909915 351.38415572745447 L 426.54900038909915 352.82814799276036 L 426.54900038909915 354.28166589818863 L 426.54900038909915 355.71597253987386 L 426.54900038909915 357.1554094305508 L 426.54900038909915 358.59796908148354 L 426.54900038909915 360.04164400393626 L 426.54900038909915 361.48442670917296 L 426.54900038909915 362.95093412385916 L 426.54900038909915 364.3858001224024 L 426.54900038909915 365.8400788169019 L 426.54900038909915 367.28502469800213 L 426.54900038909915 368.7185166717487 L 426.54900038909915 370.1641114556749 L 426.54900038909915 371.6187551844414 L 426.54900038909915 373.05413810521463 L 426.54900038909915 374.4924948772676 L 426.54900038909915 375.9301146475238 L 426.54900038909915 377.3866198819167 L 426.54900038909915 378.83295802720306 L 426.54900038909915 380.28674853543515 L 426.54900038909915 381.7190872885127 L 426.54900038909915 383.16610981886686 L 426.54900038909915 384.6165786312844 L 426.54900038909915 386.05781681890426 L 426.54900038909915 387.49342384576363 L 426.54900038909915 388.9367580673007 L 426.54900038909915 390.3866074055437 L 426.54900038909915 391.82233406783905 L 426.54900038909915 393.26247546130736 L 426.54900038909915 394.7276481644755 L 426.5492426376343 396.1555412513021 L 426.5613600082398 397.62011676215695 L 426.5955170516968 399.0623455880405 L 426.6602369613648 400.4899872623595 L 426.77540883636476 401.93320049067273 L 426.9855050582886 403.3471344414955 L 427.3949223861694 404.6924280139766 L 428.10069289398194 405.7878633253588 L 429.0696408920288 406.47369724795647 L 430.12987538909914 406.89468728378415 L 431.0850003890991 407.3312199520984 L 430.90649176168444 408.53999972343445 L 429.80235459085554 408.53999972343445 L 428.68995884281395 408.53999972343445 L 427.58609264657645 408.53999972343445 L 426.4637031903192 408.53999972343445 L 425.3535157205835 408.53999972343445 L 424.240644910343 408.53999972343445 L 423.1347755270479 408.53999972343445 L 422.01416081410645 408.53999972343445 L 420.9073855547905 408.53999972343445 L 419.7905893755779 408.53999972343445 L 418.681514494054 408.53999972343445 L 417.57696447835116 408.53999972343445 L 416.4626377423927 408.53999972343445 L 415.3515919288918 408.53999972343445 L 414.24636054613444 408.53999972343445 L 413.12941258621214 408.53999972343445 L 413.04900038909915 407.19632789772004 L 414.08640090179443 406.86891500689745 L 415.1499741439819 406.42889676131847 L 416.10375771331786 405.7138671122526 L 416.7885003890991 404.57369986891746 L 417.1707191390991 403.23770616792143 L 417.3711097640991 401.81094606400467 L 417.48105599212647 400.3643018879413 L 417.54224105072024 398.94605113429833 L 417.5745392074585 397.48972575131467 L 417.58492128753664 396.0481878281158 L 417.5850003890991 394.6058241377102 L 417.5850003890991 393.1532386020773 L 417.58500038909915 391.716550912642 L 417.58500038909915 390.2662079209893 L 417.58500038909915 388.8207257457446 L 417.58500038909915 387.38617037139784 L 417.58500038909915 385.9437615651453 L 417.58500038909915 384.49650060534475 L 417.58500038909915 383.0406469361677 L 417.58500038909915 381.6105666504143 L 417.58500038909915 380.1522362340625 L 417.58500038909915 378.7176616174149 L 417.58500038909915 377.26844433011087 L 417.58500038909915 375.83351556885975 L 417.58500038909915 374.3694428810587 L 417.5850003890991 372.9290582093222 L 417.58500038909915 371.4918912748299 L 417.58500038909915 370.0356706378066 L 417.58500038909915 368.58872829787157 L 417.58500038909915 367.1541074113096 L 417.58500038909915 365.7082254441171 L 417.58500038909915 364.27972750826495 L 417.58500038909915 362.81779534582745 L 417.58500038909915 361.3776287095881 L 417.58500038909915 359.93471107026625 L 417.58500038909915 358.4910499165977 L 417.58500038909915 357.0486527373185 L 417.58500038909915 355.6095270211644 L 417.58500038909915 354.1491900616183 L 417.58500038909915 352.7227836040856 L 417.58500038909915 351.27956685280077 L 417.58500038909915 349.8222477961445 L 417.58500038909915 348.37940166950796 L 417.58500038909915 346.9279662586924 L 417.58500038909915 345.4962058667947 L 417.58500038909915 344.0374467291747 L 417.58500038909915 342.6049154808447 L 417.58500038909915 341.1541845303243 L 417.58500038909915 339.7142500553348 L 417.58500038909915 338.2676352254801 L 417.58500038909915 336.8216279092311 L 417.58500038909915 335.3842906476539 L 417.58500038909915 333.94468930712316 L 417.58500038909915 332.4780325330006 L 417.58500038909915 331.0408249380987 L 417.58500038909915 329.6010050606151 L 417.58500038909915 328.14655798535875 L 417.58500038909915 326.7184371144612 L 417.58500038909915 325.2629706052224 L 417.58500038909915 323.81909370660446 L 417.58500008010867 322.88695598959725 L 417.58500008010867 322.88695598959725 Z" fill-opacity="1"/></g><g><path fill="rgb(255,255,255)" stroke="none" paint-order="stroke fill markers" d=" M 436.2751963729858 378.3540015258789 L 437.3743105239868 378.3540015258789 L 438.43744355773924 378.4349523963928 L 438.615341697216 380.0925102083683 L 438.8028581695557 381.74616110610964 L 438.99807140159606 383.374110581398 L 439.2059095339775 385.011024507761 L 439.42453388023375 386.6344267053604 L 439.65936542081835 388.27492986512186 L 439.90609430503844 389.8927832117081 L 440.1731197052002 391.53170416641234 L 440.45337983703615 393.1369764442444 L 440.75296773529055 394.7336856689453 L 441.0786484889984 396.34139039707185 L 441.42597783660887 397.9214452667236 L 441.8021718902588 399.48969955825805 L 442.2088973445892 401.0324461450577 L 442.65446053314207 402.55656817626954 L 443.1481146392822 404.06116177749635 L 443.68615914154054 405.50146496582033 L 444.29318149375916 406.90085387516024 L 444.96936446380613 408.2393974609375 L 445.69918081665037 409.4917207298279 L 446.49396797943115 410.656345703125 L 447.34931269264223 411.7060202703476 L 448.27751931762697 412.6351921043396 L 449.2548794784546 413.40562432861327 L 450.2923384933472 414.017414352417 L 451.36165664100645 414.45116274929046 L 452.4511099472046 414.7100090942383 L 453.56936544036864 414.80352197265626 L 454.6770938339233 414.7419859008789 L 455.7745365524292 414.51566520690915 L 456.84902684020994 414.0910489463806 L 457.8698998641968 413.441353515625 L 458.8109093551636 412.5481226043701 L 459.6330835800171 411.43093292236324 L 460.3214154891968 410.123517578125 L 460.8715668563843 408.67971630859375 L 461.2989624862671 407.1285989379883 L 461.6105114059448 405.54520195007325 L 461.83214656829836 403.91638336181643 L 461.9765934371948 402.2661257781982 L 462.0566979827881 400.5876310997009 L 462.08099932432174 398.9183512897491 L 462.0585280303955 397.2727049255371 L 461.98900929260253 395.58837557983395 L 461.8756038131714 393.95157391357424 L 461.7130369186401 392.2861696166992 L 461.50869801330566 390.66786288452147 L 461.25308296203616 389.0213836364746 L 460.95781063079835 387.4215718383789 L 460.6175941925049 385.83090121459963 L 460.24190132141115 384.2860476989746 L 459.8180892086029 382.7316803665161 L 459.3618816070557 381.22250350952146 L 458.86381084251406 379.7217600841522 L 458.3373795928955 378.24155309295656 L 457.7927634811401 376.7835957336426 L 457.2342284297943 375.3515754985809 L 456.6577607040405 373.9293666381836 L 456.06602194786075 372.5192698955536 L 455.46160088348387 371.1235229797363 L 454.8470133113861 369.7443005657196 L 454.2149275569916 368.3626088542938 L 453.57671637535094 367.0009347820282 L 452.9241669540405 365.6395228881836 L 452.26935088157654 364.30146418571474 L 451.60321066856386 362.9662730693817 L 450.9268401412964 361.63489505004884 L 450.2533074855804 360.3312826061249 L 449.5600312652588 359.0106036911011 L 448.8852461166382 357.70623808288576 L 448.2100159187317 356.3742152776718 L 447.54107542800904 355.0405419225693 L 446.87942824554443 353.7064379119873 L 446.22609589385985 352.3731449241638 L 445.57138214874266 351.0195812339783 L 444.91743758392334 349.6483609008789 L 444.2864563674927 348.30505291366575 L 443.6496007270813 346.9267170705795 L 443.01956574249266 345.53808025741574 L 442.4075470657349 344.1620467796326 L 441.79800535964966 342.7611367101669 L 441.2026918411255 341.3589296531677 L 440.6167371292114 339.9402109947205 L 440.04422731399535 338.50994744777677 L 439.48941163253784 337.0732670183182 L 438.95828841400146 335.6057225341797 L 438.4678714981079 334.11750481033323 L 438.01493924713134 332.59112892532346 L 437.6071578178406 331.0437572145462 L 437.24251248931887 329.45781715774535 L 436.93074799728396 327.86803897571565 L 436.66676847076417 326.2393550300598 L 436.45997061920167 324.6242395515442 L 436.3045018539429 322.9699610748291 L 436.20545804595946 321.31158723831174 L 436.1628391952515 319.64911804199215 L 436.1809351196289 317.9621029510498 L 436.27310821533206 316.3053602752685 L 436.44886199951173 314.6704298553467 L 436.7239980392456 313.0386103515625 L 437.0983535995483 311.4831226196289 L 437.5868189315796 309.9842271118164 L 438.18882446289064 308.5779780731201 L 438.8965751876831 307.2921982421875 L 439.69488793182376 306.1462934570312 L 440.5777942352295 305.13393435668945 L 441.5168978729248 304.2443977355957 L 442.49585201263426 303.46946197509766 L 443.5114468612671 302.8036245727539 L 444.5605331878662 302.2414868469238 L 445.6400223236084 301.77775393676757 L 446.7238126068115 301.4139658508301 L 447.80609007263183 301.1401557922363 L 448.9061734237671 300.9431558227539 L 450.02133736419677 300.8182940063476 L 451.13559127616884 300.76130071258547 L 452.24233002471925 300.7685156402588 L 453.35274910736086 300.8449907836914 L 454.4594644241333 300.98144715881347 L 455.570040473938 301.17054933166503 L 456.660534614563 301.40073487854005 L 457.7587905960083 301.67200379943847 L 458.86082367706297 301.97975831604003 L 459.9434731674194 302.31333825683595 L 461.0253489456177 302.6485014648437 L 462.1167342147827 302.95810992431643 L 463.20920754241945 303.2329680786133 L 464.30960256195067 303.4622044067383 L 465.4322910385132 303.6245208129883 L 466.3186540184021 304.0359667212963 L 466.43604935026167 305.70151299205423 L 466.5510071334839 307.33247654151916 L 466.6685140766874 308.99960629821896 L 466.7866365132332 310.6754683667123 L 466.90234661283347 312.31710540479094 L 467.0184632388949 313.9645100370385 L 467.13633929415795 315.63687657108204 L 467.25264103146645 317.2869074691464 L 467.3697233300209 318.9480125798881 L 467.48657948797944 320.6059093209244 L 467.6041872749329 322.2744697983265 L 467.7197940172181 323.91464045449766 L 467.83633868018535 325.56811786034655 L 467.9528905953765 327.2216981571205 L 468.0702102517262 328.8861707815821 L 468.18698196536303 330.54286946880444 L 468.3049184958562 332.2160939951767 L 468.4216024284363 333.87154728865625 L 468.5381209756732 335.52465417758003 L 468.6549773750305 337.182554343462 L 468.7719583941102 338.842222551655 L 468.85952938079834 340.4460015258789 L 467.73771129179 340.4460015258789 L 466.623506187439 340.4460015258789 L 466.4443329086304 338.8156695022583 L 466.26279482269285 337.17396601104736 L 466.07208919525146 335.525451751709 L 465.87506327056883 333.9002312030792 L 465.66514749908447 332.2515494709015 L 465.44837996673584 330.6343327026367 L 465.2179554672241 329.00544922637937 L 464.96997371673586 327.3509850463867 L 464.7140369033813 325.744949098587 L 464.4394378890991 324.13032105255127 L 464.14539554595945 322.51911075019837 L 463.8310891952515 320.923936126709 L 463.4919346542358 319.34139813232423 L 463.12297983551025 317.7734336738587 L 462.7214636001587 316.22179472732546 L 462.28466024017337 314.69156109619144 L 461.8022342300415 313.17681221389773 L 461.271268699646 311.7042374420166 L 460.68864902496335 310.30233559036253 L 460.02366526031494 308.9506307868958 L 459.2793854751587 307.72154082107545 L 458.43819844818114 306.65207997131347 L 457.49860289764405 305.74383613967893 L 456.4907740097046 305.02493981933594 L 455.4512740097046 304.50983044433593 L 454.3479654159546 304.17178991699217 L 453.24887145233157 304.01521980667115 L 452.1448031539917 304.01671377563474 L 451.02500188446044 304.20683438110353 L 449.949457939148 304.61713418579103 L 448.9300365524292 305.2746659240723 L 448.0136119918823 306.1670304260254 L 447.1934624786377 307.3055701141357 L 446.5181740875244 308.6273077850342 L 445.9997949752808 310.1062758789062 L 445.6458706893921 311.66750836181643 L 445.43322344207763 313.305578125 L 445.3461523971558 314.96089697265626 L 445.36269121551516 316.64394678878784 L 445.46826543426516 318.2974463005066 L 445.6578941268921 319.95230444335937 L 445.91754500579833 321.5534436645508 L 446.24807500457763 323.1517608757019 L 446.6382261581421 324.71837133789063 L 447.08067168426516 326.2509502067566 L 447.56834188079836 327.7472542114258 L 448.09442412567137 329.2051216545105 L 448.65076766204834 330.64041857910155 L 449.22903633880617 332.074070438385 L 449.8168062667847 333.48304763126373 L 450.4147193222046 334.87554219055176 L 451.03303234100343 336.2794349451065 L 451.65318282318117 337.65620343399047 L 452.27890254974363 339.01799863052366 L 452.9243836593628 340.3977434701919 L 453.57020836639407 341.75581965732573 L 454.22266442108156 343.1076530008316 L 454.87967540740965 344.4505830926895 L 455.5392242355347 345.78202553653716 L 456.2098283309937 347.12026291275026 L 456.9059090003967 348.40434375953674 L 457.6076337928772 349.694126871109 L 458.30663112640383 351.00395651245117 L 458.99023517227175 352.31077442359924 L 459.6700315284729 353.6374275150299 L 460.33388974380495 354.9609622745514 L 460.99284108734133 356.30411715698244 L 461.64604695892336 357.6667280883789 L 462.2821965560913 359.0260019226074 L 462.911463596344 360.40450933265686 L 463.52310108184815 361.7795674819946 L 464.12669997406005 363.17363302612307 L 464.721379032135 364.5865335483551 L 465.30624280166626 366.0180938510895 L 465.8717003211975 367.44585727882384 L 466.4261296615601 368.8920431823731 L 466.96860694122313 370.3564708023071 L 467.4856011581421 371.81928302001955 L 467.9757088775635 373.3069340553284 L 468.44371883392336 374.8418921508789 L 468.86848433685304 376.3574830322266 L 469.2679348678589 377.92063496398924 L 469.62902938079833 379.4868150024414 L 469.9604253768921 381.1009021606445 L 470.2474810333252 382.6957086219787 L 470.49828242492674 384.31615851211546 L 470.71113875579834 385.9623853149414 L 470.882280960083 387.61190533828733 L 471.01170903778075 389.2647185821533 L 471.0994229888916 390.9208250465393 L 471.1454228134155 392.5802247314453 L 471.1501802368164 394.25968871307373 L 471.11769359588624 395.93400491333006 L 471.0462129745483 397.5900776977539 L 470.9304115314484 399.24450155448915 L 470.76495825386047 400.887601682663 L 470.544296875 402.5092944869995 L 470.2549204940796 404.13759088134765 L 469.9003205490112 405.7000420227051 L 469.46038685798646 407.23893681144716 L 468.93007623291015 408.718861076355 L 468.3207389755249 410.0816283569336 L 467.6069839477539 411.35994359588625 L 466.7960693359375 412.514455619812 L 465.9106299285889 413.53981889343265 L 464.97994133758544 414.44273974609376 L 464.0078226852417 415.22940478515625 L 462.9980115203857 415.9058652801514 L 461.9541675262451 416.4780464324951 L 460.8798725204468 416.95174737548825 L 459.80421672058105 417.3248879852295 L 458.7072461395264 417.6143403778076 L 457.6060916728973 417.82325100326534 L 456.4911169891357 417.96060746765136 L 455.3802640838623 418.030869430542 L 454.27391976165774 418.0410104980469 L 453.1630586166382 417.9950512542724 L 452.0604883041382 417.8993383636475 L 450.95375197601317 417.7583398284912 L 449.84652785491943 417.57665342712403 L 448.7423755111694 417.3587286224365 L 447.6447358627319 417.1088665618896 L 446.5569311752319 416.8312200775147 L 445.46123445892334 416.5236694946289 L 444.36451766204834 416.2108228149414 L 443.26453133392334 415.9190171508789 L 442.1713872909546 415.6534138793945 L 441.07413985443117 415.4199307861328 L 439.9644536972046 415.23338458251953 L 438.86537703704835 415.1318775024414 L 438.55903329975905 413.7974701618813 L 438.452574651286 412.1497806252874 L 438.34407804203033 410.4705490138531 L 438.2365511225462 408.80632555547356 L 438.1294434709549 407.1485912206173 L 438.02383756016195 405.51409973766283 L 437.91597461916507 403.8446755826883 L 437.8089821953233 402.1887246591379 L 437.70082237321697 400.51470559426446 L 437.59420584760795 398.864572550179 L 437.4865813503992 397.1988388547436 L 437.38047689569 395.5566312716305 L 437.27319411690536 393.8961864454411 L 437.1655706923623 392.230469351945 L 437.05852315873096 390.57366547915103 L 436.95145768906735 388.91658400549414 L 436.84416340637205 387.2559611301422 L 436.7370030237753 385.597410663133 L 436.6298633432388 383.9391806075573 L 436.52327370452883 382.2894636993408 L 436.41583645303547 380.6266280569099 L 436.30825764286516 378.9616014722288 L 436.2751963729858 378.3540015258789 L 436.2751963729858 378.3540015258789 Z" fill-opacity="1"/></g></g></g></g></svg>